<svg xmlns="http://www.w3.org/2000/svg" xmlns:svg="http://www.w3.org/2000/svg" id="svg8" width="1076" height="776.487" version="1.1" viewBox="0 0 284.692 205.446"><metadata id="metadata5"/><g id="layer1" transform="translate(35.378581,-70.313261)"><path id="path94" fill="#000" stroke-width=".353" d="m 130.89318,273.99494 c -0.22604,-0.97014 -0.52045,-2.3592 -0.65424,-3.0868 l -0.24326,-1.32292 4.36079,0.0529 c 2.39843,0.0291 3.92422,0.11899 3.39065,0.19982 -1.4477,0.2193 -1.17194,0.70465 0.52916,0.93135 3.7874,0.50475 16.46129,0.6601 20.02014,0.2454 6.86515,-0.79995 14.02901,-2.61258 13.83767,-3.50126 -0.0647,-0.30042 0.13508,-0.37711 0.59888,-0.2299 0.75207,0.23869 3.28948,-0.88048 3.23505,-1.42688 -0.0712,-0.71433 1.16798,-0.27196 1.8695,0.66741 0.58369,0.78158 0.76994,1.62451 0.86598,3.91914 l 0.12236,2.92339 -13.17513,0.18452 -13.17514,0.18453 -9.525,-1.19249 c -5.23875,-0.65587 -9.92188,-1.23251 -10.40694,-1.28144 -0.84369,-0.0851 -0.8897,0.0105 -1.06071,2.20411 l -0.17877,2.29305 z m 3.18974,-5.86306 c -0.41457,-0.46185 -1.76394,-2.66219 -2.99861,-4.88966 -1.91942,-3.46287 -2.883,-4.71577 -6.64717,-8.64306 -6.64186,-6.92966 -11.45643,-11.57671 -14.82405,-14.30822 -1.06715,-0.86557 -2.25778,-1.86238 -2.64583,-2.21512 -1.22934,-1.11747 -6.95023,-5.36126 -9.819327,-7.28404 -2.925414,-1.96052 -7.881896,-4.62026 -23.341787,-12.52566 -16.983407,-8.68444 -29.219311,-15.46232 -32.898617,-18.22367 -1.808339,-1.35718 -1.848648,-1.42614 -1.630606,-2.78968 l 0.223565,-1.39811 H 10.174843 -19.150802 v -2.64583 -2.64583 h -8.11389 -8.113889 v -1.94028 -1.94028 H 106.96726 249.31309 v 1.94028 1.94028 h -9.34861 -9.34861 v 2.64583 2.64583 h -34.39583 c -19.49589,0 -34.39584,0.13411 -34.39584,0.30959 0,0.17026 0.23813,0.5072 0.52917,0.74875 0.3077,0.25537 0.52917,1.0251 0.52917,1.8392 0,1.84278 -2.30633,5.19975 -4.42564,6.44175 -3.74853,2.19678 -4.30879,3.0638 -6.90871,10.69131 -0.95778,2.80989 -2.1512,5.97511 -2.65205,7.03382 -0.63625,1.34492 -0.8188,2.12086 -0.60587,2.57526 0.16762,0.3577 2.37386,2.76479 4.90274,5.34909 5.21957,5.33394 8.32431,8.98395 9.18541,10.79858 0.45051,0.94938 0.53729,1.7593 0.3668,3.42343 -0.19835,1.93594 -0.10523,2.4403 0.83225,4.50786 1.29374,2.85329 1.837,6.14876 1.70121,10.31957 l -0.10309,3.16596 -0.75483,-1.41111 c -1.1802,-2.2063 -1.85541,-4.80608 -2.96581,-11.41938 -0.65123,-3.87859 -1.33767,-6.79198 -1.8702,-7.9375 -1.20714,-2.59667 -3.73926,-5.89933 -8.04777,-10.49676 -2.06847,-2.20717 -4.10389,-4.44939 -4.52317,-4.98272 l -0.76233,-0.96969 1.94518,-4.67475 c 1.06986,-2.57112 2.64888,-6.6964 3.50894,-9.1673 0.86006,-2.4709 1.81275,-4.87257 2.11708,-5.33704 0.30434,-0.46447 1.73193,-1.49134 3.17243,-2.28193 3.84432,-2.10989 4.89065,-3.08331 4.75973,-4.42805 -0.088,-0.90344 -0.38991,-1.24414 -1.69453,-1.91202 -1.41493,-0.72436 -1.99016,-0.80053 -5.29166,-0.70068 -3.27831,0.0991 -3.94751,0.23313 -5.82075,1.16548 -4.31503,2.14766 -12.00876,11.14687 -15.72363,18.39161 -1.05344,2.05444 -2.3916,4.1385 -2.97368,4.63126 -0.58208,0.49275 -2.40276,1.54237 -4.04595,2.33247 -3.61911,1.74019 -6.56673,2.07584 -9.59471,1.09256 -3.74261,-1.21534 -10.48631,-4.04707 -17.227394,-7.23391 -16.198208,-7.65768 -23.928413,-11.00802 -28.14203,-12.19701 -0.49022,-0.13833 -0.979219,-1.12515 -0.697261,-1.40711 0.09661,-0.0966 4.045281,1.51989 8.774832,3.59222 4.729551,2.07233 9.948556,4.35814 11.597792,5.07957 8.431277,3.6881 10.606951,4.69265 10.784041,4.97919 0.10654,0.17239 0.47202,0.31343 0.81219,0.31343 0.34015,0 1.2436,0.29618 2.00765,0.65818 0.76405,0.362 3.37355,1.33979 5.7989,2.17288 2.42534,0.83309 4.63044,1.68609 4.9002,1.89556 0.57941,0.44989 7.59005,0.7491 9.43635,0.40273 2.14588,-0.40257 4.54197,-3.18557 7.91323,-9.19103 4.05347,-7.22071 6.79318,-10.37883 13.69967,-15.79189 1.1828,-0.92703 2.15055,-1.83985 2.15055,-2.02847 0,-0.21843 -8.0058,-0.34296 -22.04862,-0.34296 -13.24238,0 -22.0486,0.13009 -22.0486,0.32571 0,0.42343 1.32947,2.03843 4.39893,5.34364 3.15996,3.40268 5.34925,6.69884 7.20503,10.84778 1.29553,2.89638 2.50714,6.58098 2.50714,7.62438 0,0.66599 -0.9912,-1.05388 -3.65572,-6.3432 -4.546,-9.02424 -8.01711,-13.39043 -12.29068,-15.46005 -1.80099,-0.87219 -5.925816,-1.77185 -5.925816,-1.29248 0,0.12838 2.624981,3.28217 5.833286,7.00844 3.51737,4.08523 5.65327,6.8357 5.37986,6.92783 -0.24938,0.084 -0.83363,0.20027 -1.29832,0.25829 -0.72756,0.0908 -0.22535,0.65921 3.61597,4.09236 2.9075,2.59855 4.46087,4.23349 4.46087,4.69512 0,0.84241 0.19372,0.94883 -4.39847,-2.41618 -1.94647,-1.4263 -4.41215,-3.21464 -5.47931,-3.97408 -1.06715,-0.75944 -2.33715,-1.72366 -2.82222,-2.14271 l -0.88194,-0.76191 0.97014,0.57103 c 0.53357,0.31407 1.37516,0.83276 1.87019,1.15264 0.61779,0.39921 1.01407,0.4676 1.26359,0.21808 0.24953,-0.24953 -0.56518,-1.67657 -2.59782,-4.55036 -1.62874,-2.30275 -4.175605,-5.94984 -5.659699,-8.10463 l -2.698348,-3.9178 -8.921253,0.16455 c -4.906687,0.0905 -8.960968,0.1999 -9.009518,0.24311 -0.04855,0.0432 0.824576,0.53811 1.940278,1.09979 1.115702,0.56168 2.346047,1.28709 2.734102,1.61202 0.676917,0.5668 1.648167,1.09997 9.525001,5.22877 7.383642,3.87028 3.806585,2.34225 -6.136327,-2.62129 -10.024396,-5.00422 -10.929751,-5.33941 -10.967995,-4.06073 -0.0028,0.0993 2.733036,1.89614 6.080016,3.99289 18.251897,11.4341 21.620823,13.61485 22.064033,14.28235 0.45121,0.67956 0.29016,0.65667 -2.243181,-0.31883 -3.091572,-1.19046 -8.037397,-3.65682 -13.735435,-6.84953 -9.336526,-5.23142 -19.854328,-10.39205 -22.956716,-11.26386 -3.213463,-0.90303 -10.698215,-1.78186 -11.171989,-1.31178 -0.14412,0.14299 2.951505,1.42462 6.879167,2.84805 7.016136,2.54272 11.198148,4.41584 11.198148,5.01563 0,0.167 -0.07619,0.30363 -0.169298,0.30363 -0.245332,0 -7.163457,-2.7321 -8.826536,-3.48577 -0.776111,-0.35171 -2.839861,-1.0017 -4.586111,-1.44443 -1.74625,-0.44272 -4.275515,-1.10204 -5.620587,-1.46515 -3.157555,-0.85241 -8.237446,-0.91777 -8.547421,-0.10998 -1.435001,3.73955 32.086329,18.4269 44.415239,19.46052 1.654609,0.13871 2.384715,0.34421 2.384715,0.6712 0,0.54315 -0.667985,0.71549 -3.96875,1.02392 -1.955779,0.18276 -2.38125,0.3337 -2.38125,0.84482 0,0.49224 1.808533,1.27895 8.653625,3.76428 l 8.653621,3.14198 -0.09876,1.34891 c -0.09814,1.34038 -0.08538,1.3545 2.017899,2.23152 1.16417,0.48542 4.81319,1.8409 8.10893,3.01215 13.05407,4.63923 18.50318,7.75083 22.21077,12.68302 1.93731,2.57718 2.97676,4.75613 4.61707,9.67849 2.71628,8.15117 5.00893,10.25363 12.68823,11.63565 1.55222,0.27935 3.89379,0.50812 5.20347,0.50839 1.30969,2.6e-4 2.38126,0.12521 2.38126,0.27766 0,0.33596 0.93801,0.28623 -11.46528,0.60782 l -10.23056,0.26526 z M 80.126824,204.016 c 0.103787,-0.16794 -0.640906,-0.83007 -1.654874,-1.47141 -4.014837,-2.53941 -8.2146,-5.01855 -9.021022,-5.32516 -1.42912,-0.54335 -3.587478,-0.95302 -3.396968,-0.64477 0.09891,0.16004 2.121743,1.36736 4.495179,2.68293 2.373437,1.31557 5.344697,2.9931 6.602798,3.72784 2.437659,1.42362 2.680067,1.5076 2.974887,1.03057 z m 81.519596,-1.20358 c 0.53995,-0.73288 1.07051,-1.24373 1.17903,-1.13522 0.10851,0.10851 -0.33327,0.70815 -0.98173,1.33252 l -1.17902,1.13522 z M -7.7154445,181.96675 c -3.1211135,-1.41366 -4.2308905,-6.35558 -2.178379,-9.70048 1.937143,-3.15689 7.0976108,-2.76798 8.8223348,0.66487 0.75044998,1.49368 0.81673598,4.83144 0.12865598,6.47824 -0.97585998,2.33557 -4.40418078,3.63011 -6.77261178,2.55737 z m 4.2071748,-1.65323 c 1.958657,-1.54067 2.088068,-5.94087 0.229389,-7.79955 -1.080253,-1.08025 -2.9243538,-1.34709 -4.2833118,-0.6198 -1.566094,0.83815 -2.258285,4.94521 -1.183679,7.02326 1.101571,2.13021 3.493715,2.76784 5.2376018,1.39609 z M 20.804274,182.218 c -1.170912,-0.25167 -2.83742,-2.08431 -3.251662,-3.57583 -1.277528,-4.59987 0.993711,-8.53765 4.924365,-8.53765 2.115909,0 3.74408,1.03204 4.598875,2.91507 1.296864,2.85686 0.599698,6.93027 -1.433957,8.37836 -1.008239,0.71793 -3.414734,1.12587 -4.837621,0.82005 z m 3.215789,-1.51589 c 2.44089,-0.92803 2.901738,-6.72795 0.673837,-8.48042 -0.974602,-0.76662 -2.902345,-0.9331 -4.000352,-0.34546 -2.444669,1.30835 -2.351518,7.80701 0.126206,8.80483 1.041936,0.4196 2.133152,0.42678 3.200309,0.0211 z m 25.247424,1.43422 c -2.526781,-0.82758 -3.859953,-2.70695 -3.859953,-5.44136 0,-4.37508 2.62159,-6.90552 6.743905,-6.50941 l 1.722762,0.16553 v -2.59405 c 0,-2.5318 0.02117,-2.59404 0.881944,-2.59404 h 0.881945 v 8.26945 c 0,4.5482 -0.138797,8.35524 -0.308437,8.46009 -0.576894,0.35654 -5.155714,0.54068 -6.062166,0.24379 z m 4.529861,-5.65661 c 0.07425,-3.26856 -0.01538,-4.45482 -0.352777,-4.66891 -0.248772,-0.15786 -1.222252,-0.28944 -2.163287,-0.29241 -1.479035,-0.005 -1.873567,0.15719 -2.910417,1.19404 -1.099862,1.09986 -1.199444,1.37673 -1.199444,3.33479 0,1.17444 0.179853,2.53008 0.399676,3.01254 0.572629,1.25678 2.276997,1.99531 4.362824,1.89048 l 1.763889,-0.0886 z m 32.42325,5.71469 c -0.699096,-0.1051 -0.956194,-0.32338 -0.87261,-0.7409 0.0983,-0.49106 0.478547,-0.57225 2.231898,-0.47653 1.738919,0.0949 2.284236,-0.019 3.077475,-0.64297 1.105203,-0.86936 1.254841,-2.11483 0.346703,-2.88572 -0.339549,-0.28823 -1.411111,-0.80605 -2.38125,-1.1507 -2.084451,-0.74053 -2.998612,-1.66734 -2.998612,-3.04012 0,-1.66913 1.342535,-2.86589 3.44121,-3.06755 2.330715,-0.22395 3.614346,0.0977 3.614346,0.90555 0,0.55096 -0.275124,0.60984 -2.2594,0.48348 -2.090607,-0.13312 -2.302045,-0.0788 -2.830224,0.72733 -0.822254,1.25492 -0.412065,1.86507 1.852514,2.75557 2.561636,1.00733 3.624623,2.01034 3.665813,3.45898 0.08389,2.95048 -2.506744,4.33216 -6.887863,3.67358 z m 28.310782,-0.0798 c -2.57559,-0.78153 -3.84446,-2.70874 -3.84446,-5.83909 0,-3.65968 2.1191,-6.16962 5.21117,-6.1723 2.50705,-0.002 4.01436,1.16175 4.67322,3.60858 0.68059,2.52752 0.64425,2.55175 -3.99512,2.66311 -4.11845,0.0988 -4.14088,0.10401 -4.14088,0.95353 0,2.54009 2.05575,3.92707 5.31558,3.58635 1.57911,-0.16505 2.06703,-0.0999 2.21909,0.29638 0.36114,0.94114 -3.30653,1.5504 -5.4386,0.90344 z m 4.60671,-7.97179 c 0,-2.51721 -3.70788,-3.56232 -5.67158,-1.59861 -0.56716,0.56716 -1.0312,1.36091 -1.0312,1.76389 0,0.69032 0.19381,0.73269 3.35139,0.73269 h 3.35139 z m 93.71279,7.94358 c -2.24911,-0.674 -3.50837,-2.7358 -3.54903,-5.81088 -0.047,-3.55273 1.79476,-5.77763 5.04083,-6.08953 2.16774,-0.20829 3.57319,0.10818 3.57319,0.80458 0,0.40593 -0.49391,0.52245 -2.21456,0.52245 -3.35175,0 -4.84099,1.46509 -4.84099,4.7625 0,3.32687 1.85891,4.99704 5.18023,4.65425 1.64331,-0.16961 1.87532,-0.11488 1.87532,0.44241 0,0.98842 -2.82207,1.38636 -5.06499,0.71422 z m 25.85828,0.0282 c -2.57559,-0.78154 -3.84446,-2.70874 -3.84446,-5.8391 0,-3.63785 2.12117,-6.16958 5.17138,-6.17229 2.8713,-0.002 4.48064,1.5412 4.91571,4.71539 l 0.22387,1.63328 h -4.28128 -4.28129 v 0.86535 c 0,2.55158 2.04982,3.93888 5.31559,3.59754 1.57911,-0.16505 2.06702,-0.0999 2.21908,0.29638 0.36115,0.94114 -3.30653,1.5504 -5.4386,0.90344 z m 4.47336,-8.22035 c -0.48528,-2.51135 -3.6142,-3.27409 -5.53823,-1.35006 -0.56716,0.56716 -1.0312,1.36091 -1.0312,1.76389 0,0.69099 0.19327,0.73269 3.39549,0.73269 h 3.39549 z m -275.033323,2.91041 V 171.513 h -1.058333 c -0.705556,0 -1.058334,-0.17639 -1.058334,-0.52917 0,-0.34757 0.347791,-0.52917 1.01345,-0.52917 0.96072,0 1.022425,-0.0934 1.185955,-1.7953 0.235882,-2.45487 1.292288,-3.50723 3.566528,-3.55288 1.857698,-0.0373 2.101799,0.0737 1.813558,0.82488 -0.128437,0.3347 -0.539686,0.46646 -1.16808,0.37423 -1.472637,-0.21614 -2.604334,0.88161 -2.660914,2.58108 l -0.04633,1.3916 1.675695,0.10753 c 1.14407,0.0734 1.675694,0.26314 1.675694,0.59803 0,0.33489 -0.531624,0.52462 -1.675694,0.59803 l -1.675695,0.10752 -0.09763,5.20348 c -0.09215,4.9118 -0.136645,5.20347 -0.79375,5.20347 -0.662042,0 -0.696125,-0.25908 -0.696125,-5.29167 z M 138.89365,176.2755 c 0,-5.58565 0.0285,-5.82084 0.70555,-5.82084 0.52387,0 0.70556,0.23519 0.70556,0.91331 v 0.9133 l 1.0854,-0.9133 c 1.35284,-1.13835 3.14793,-1.25681 3.14793,-0.20775 0,0.55122 -0.23519,0.70555 -1.07518,0.70555 -2.28547,0 -3.15815,2.10948 -3.15815,7.63396 0,2.36141 -0.0639,2.5966 -0.70556,2.5966 -0.67705,0 -0.70555,-0.23519 -0.70555,-5.82083 z m 24.43237,1.32291 c -0.98717,-2.47385 -2.05323,-5.10443 -2.36903,-5.84572 l -0.57417,-1.34781 0.95198,0.11308 c 0.81881,0.0973 1.06987,0.43389 1.79459,2.40615 2.13466,5.80927 2.65632,7.04716 2.90496,6.89349 0.14676,-0.0907 1.02818,-2.23446 1.95872,-4.76392 1.48739,-4.04315 1.78836,-4.59902 2.49004,-4.59902 0.76733,0 0.70837,0.22478 -1.52675,5.82084 -3.02297,7.56859 -3.1282,7.59332 -5.63034,1.32291 z m 26.01485,-0.79375 c 0,-5.05648 -0.0314,-5.29166 -0.70556,-5.29166 -0.39197,0 -0.70555,-0.23519 -0.70555,-0.52917 0,-0.39198 0.41157,-0.52917 1.5875,-0.52917 h 1.5875 v 5.82084 5.82083 h -0.88195 -0.88194 z m -0.45549,-9.39252 c -0.13754,-0.13754 -0.25007,-0.62049 -0.25007,-1.07322 0,-0.68338 0.18368,-0.82315 1.08177,-0.82315 0.97198,0 1.07044,0.0985 0.97014,0.97014 -0.10943,0.951 -1.21088,1.51719 -1.80184,0.92623 z m -206.272293,-3.04078 c -1.649237,-0.14497 -3.316112,-0.41037 -3.704167,-0.58979 -0.388056,-0.17942 -1.623472,-0.7293 -2.74537,-1.22196 -1.121898,-0.49266 -2.78856,-1.4975 -3.703693,-2.23299 -2.148445,-1.72667 -2.2367,-1.81576 -3.246941,-3.27751 -0.469335,-0.6791 -0.949203,-1.3141 -1.066373,-1.41111 -0.403757,-0.33431 -1.705052,-3.40232 -2.275751,-5.36545 -0.82099,-2.82411 -0.834278,-8.28716 -0.02814,-11.5679 0.357573,-1.4552 0.745012,-2.7252 0.860976,-2.82222 0.115965,-0.097 0.578276,-0.90818 1.027358,-1.80258 0.449082,-0.89441 1.436764,-2.32316 2.194849,-3.175 0.758084,-0.85185 1.382841,-1.66787 1.388348,-1.81339 0.0055,-0.14552 0.212758,-0.26458 0.460558,-0.26458 0.247801,0 0.962176,-0.4673 1.5875,-1.03845 0.625325,-0.57115 1.136954,-0.94342 1.136954,-0.82727 0,0.11615 0.277813,-0.0338 0.617361,-0.33328 0.644761,-0.56863 5.059196,-2.2512 6.675032,-2.5442 1.730494,-0.3138 6.980354,-0.24897 8.7708625,0.10831 0.976665,0.19489 2.683227,0.69387 3.792361,1.10885 l 2.0166068,0.75451 0.0048,4.82534 c 0.0026,2.65395 0.100539,5.18254 0.217534,5.6191 0.184495,0.68844 0.07813,0.79375 -0.801722,0.79375 -0.9346668,0 -1.0801578,-0.18725 -1.8501728,-2.38125 -1.827797,-5.20793 -2.926737,-7.54608 -4.1300945,-8.78738 -1.442114,-1.48759 -3.086796,-1.78076 -5.58381,-0.99536 -2.316013,0.72848 -3.837183,2.00395 -5.003954,4.19573 -0.473807,0.89004 -0.785264,1.61826 -0.692126,1.61826 0.09314,0 -0.0547,0.635 -0.328527,1.41111 -0.273828,0.77611 -0.406098,1.41111 -0.293933,1.41111 0.112165,0 -0.0081,0.2555 -0.267265,0.56777 -0.350976,0.4229 -0.505755,2.51561 -0.606632,8.20208 -0.152423,8.59214 0.300068,12.4093 1.880687,15.86528 0.96446,2.10877 2.542061,4.04114 3.045294,3.73013 0.164336,-0.10157 0.298794,-0.0321 0.298794,0.15442 0,0.52334 2.042287,1.11367 3.85282,1.11367 1.300157,0 1.897547,-0.21982 2.945968,-1.08402 0.723306,-0.59621 1.3151015,-1.31059 1.3151015,-1.5875 0,-0.27692 0.15875,-0.50348 0.352778,-0.50348 0.194028,0 0.352778,-0.17009 0.352778,-0.37798 0,-0.20788 0.226679,-0.60465 0.503731,-0.88171 0.419231,-0.41923 1.8197,-3.65858 2.12444,-4.91392 0.0471,-0.19403 0.280332,-0.82903 0.518291,-1.41112 0.237959,-0.58208 0.513319,-1.45989 0.611912,-1.95067 0.1750068,-0.87118 0.3794718,-0.93478 2.3270428,-0.72382 0.14552,0.0158 0.264583,2.69314 0.264583,5.94973 v 5.92106 l -2.40906,0.93726 c -3.8348048,1.49195 -7.8029593,2.00315 -12.4076073,1.59842 z m 23.8125009,-0.53054 c -0.7761111,-0.31914 -1.6208869,-0.78721 -1.8772823,-1.04015 -0.2563919,-0.25294 -0.5843482,-0.4599 -0.7287895,-0.4599 -0.1444379,0 -0.6490371,-0.67468 -1.121329,-1.4993 -0.7046418,-1.2303 -0.8587108,-1.98439 -0.8587108,-4.20295 0,-2.43885 0.10365,-2.84908 1.0583337,-4.18867 1.3452828,-1.88767 3.4123349,-3.03534 7.388204,-4.10208 1.73518,-0.46556 4.156118,-1.33939 5.379861,-1.94184 l 2.224991,-1.09535 -0.0042,-2.50922 c -0.005,-2.99219 -0.759875,-6.09016 -1.648056,-6.76348 -1.039319,-0.78789 -3.459783,-0.63385 -4.486504,0.28552 -0.88095,0.78886 -3.0334624,4.6334 -3.0334624,5.41801 0,0.2257 -0.2371478,0.86508 -0.5269936,1.42083 -0.2898458,0.55576 -0.5279708,1.28828 -0.5291667,1.62783 -0.00176,0.50536 -0.3221814,0.61736 -1.7660621,0.61736 H 4.1325323 v -4.04881 c 0,-4.72859 -0.1752177,-4.48884 4.3973752,-6.01676 2.5833425,-0.86322 3.1521685,-0.92565 7.0555555,-0.77442 2.335124,0.0905 4.613078,0.25747 5.062118,0.37108 1.741212,0.44057 4.142825,2.26816 5.180785,3.9425 l 1.058334,1.70721 0.118445,11.05266 0.118441,11.05266 h 1.380864 c 0.992248,0 1.380861,0.14892 1.380861,0.52917 0,0.44899 -0.881945,0.52916 -5.820834,0.52916 -4.919289,0 -5.827663,-0.082 -5.864931,-0.52916 -0.0476,-0.57122 -0.192712,-1.77671 -0.265412,-2.20486 -0.02469,-0.14552 -0.481115,0.23407 -1.014236,0.84354 -1.594221,1.82253 -3.554935,2.59876 -6.511505,2.57786 -1.5396248,-0.0109 -3.138001,-0.25105 -3.9828051,-0.59844 z m 9.0190251,-2.21801 c 0.375299,-0.20086 0.682364,-0.59773 0.682364,-0.88195 0,-0.28421 0.139904,-0.51675 0.310899,-0.51675 0.67243,0 1.223349,-3.56482 1.267573,-8.20209 0.02543,-2.66788 -0.08646,-4.85069 -0.248666,-4.85069 -0.972245,0 -3.910813,1.94873 -4.662448,3.09193 -1.923165,2.92504 -2.1183,9.3984 -0.337005,11.17969 0.627542,0.62754 1.99674,0.70998 2.987283,0.17986 z m 23.083754,2.12954 c -3.117868,-0.89636 -2.99266,-0.85378 -4.145139,-1.40967 l -0.970139,-0.46794 v -4.198 -4.198 l 1.322917,0.10949 c 1.309627,0.10839 1.331856,0.13607 2.212855,2.75532 2.020069,6.00576 3.349671,7.19769 7.753117,6.95032 3.132886,-0.17599 4.080902,-0.5761 5.379862,-2.27061 1.177702,-1.53631 1.228573,-2.78491 0.176389,-4.32938 -0.930515,-1.36587 -3.225825,-2.59857 -8.430857,-4.5278 -6.800826,-2.5207 -8.767061,-4.42563 -8.767061,-8.49371 0,-1.19248 0.219982,-2.69465 0.488851,-3.33814 1.011037,-2.41975 4.038248,-4.56279 7.718359,-5.46403 3.537257,-0.86625 9.8991,-0.48078 14.458763,0.87607 0.539115,0.16042 0.617362,0.67254 0.617362,4.04049 v 3.85678 h -1.245793 c -0.69402,0 -1.301796,-0.19531 -1.372231,-0.44097 -1.142598,-3.98505 -2.695678,-6.38141 -4.766695,-7.35491 -1.531631,-0.71995 -2.71446,-0.7635 -5.204192,-0.19162 -2.602322,0.59774 -4.145623,2.96155 -3.236405,4.95706 0.476543,1.04589 3.367906,2.68495 7.246991,4.10818 6.910518,2.53546 8.84161,3.87866 9.998855,6.95489 0.87993,2.33907 0.778644,4.05391 -0.401479,6.79717 -0.868916,2.01986 -3.097703,3.86317 -6.057001,5.00944 -2.792035,1.08148 -9.463599,1.22224 -12.777329,0.26957 z m 30.104924,0.23701 c -1.72962,-0.55392 -3.250477,-1.90605 -3.838275,-3.41248 -0.355706,-0.9116 -0.532144,-4.23508 -0.674218,-12.7 l -0.19243,-11.46528 -1.058333,-0.0344 c -2.065253,-0.0671 -2.274436,-0.13284 -2.075064,-0.65239 0.116886,-0.3046 0.788056,-0.55352 1.664624,-0.61737 l 1.468773,-0.10699 v -3.08718 -3.08717 l 4.850695,3.5e-4 4.850694,3.6e-4 v 3.13605 3.13604 l 1.322917,-0.007 c 4.370346,-0.0233 5.379862,0.0919 5.379862,0.61413 0,0.57393 -0.73448,0.66172 -4.497917,0.53762 l -2.204862,-0.0727 0.0014,11.762 c 0.0014,11.24755 0.03305,11.81403 0.726814,12.952 0.684187,1.12225 0.814662,1.17996 2.291542,1.01349 0.861328,-0.0971 1.830059,-0.39446 2.152742,-0.66084 1.001352,-0.82665 1.813189,-3.19334 2.0331,-5.92698 0.2278,-2.83169 0.401426,-3.28817 0.945039,-2.48463 0.38867,0.5745 0.142953,4.31956 -0.423062,6.44797 -0.540466,2.03234 -2.530877,4.02127 -4.655753,4.65229 -2.093701,0.62176 -6.222919,0.65406 -8.068208,0.0631 z m 27.397856,0.32636 c -0.194027,-0.069 -1.067152,-0.33234 -1.940277,-0.58527 -1.993647,-0.57753 -4.565908,-2.40326 -6.206209,-4.40503 -3.679938,-4.49088 -4.143526,-13.58151 -0.936304,-18.36026 2.159085,-3.21702 3.982223,-4.70829 7.254375,-5.93381 2.37884,-0.89095 8.519008,-0.65206 10.824248,0.42113 3.45182,1.60697 5.56387,4.99511 5.90217,9.46823 l 0.19689,2.6034 h -7.95017 -7.950178 l -0.222507,0.88653 c -0.587488,2.34074 0.639999,9.91713 1.952769,12.05302 0.702063,1.14227 3.155056,2.58426 4.390046,2.5807 1.42781,-0.004 3.39273,-0.7818 4.55605,-1.80321 1.5176,-1.33247 3.27452,-4.80226 3.57374,-7.05787 0.2004,-1.5107 0.33011,-1.72028 1.06469,-1.72028 0.46008,0 0.8365,0.0502 0.8365,0.11159 0,0.0614 -0.16922,1.02701 -0.37605,2.14583 -0.69201,3.74345 -2.99059,6.95767 -6.15034,8.60037 -1.47256,0.76556 -2.31741,0.9338 -5.115276,1.01867 -1.843264,0.0559 -3.510139,0.0452 -3.704167,-0.0237 z m 6.164983,-21.28954 c -0.0109,-3.90259 -0.48951,-5.98867 -1.61284,-7.02974 -1.032687,-0.95706 -1.571329,-1.01091 -2.954938,-0.29542 -1.520867,0.78647 -2.479149,3.65712 -2.479149,7.42659 v 2.98538 h 3.527778 3.527779 l -0.009,-3.08681 z m 53.06301,20.55187 c -2.10181,-1.04738 -3.42299,-2.38641 -3.97027,-4.02395 -0.58227,-1.74222 -0.46459,-4.95244 0.23353,-6.37005 0.87531,-1.77743 3.26545,-3.42766 6.18011,-4.26694 3.42779,-0.98704 6.87744,-2.30204 8.26683,-3.15128 1.08292,-0.66193 1.14653,-0.81526 1.14653,-2.76382 0,-3.28259 -0.67177,-5.98346 -1.68681,-6.78189 -1.05935,-0.83328 -3.14194,-0.90475 -4.22658,-0.14504 -1.0819,0.75779 -2.53839,3.35366 -3.6462,6.49853 l -0.93611,2.65743 -1.63132,0.10753 -1.63132,0.10752 v -4.19974 -4.19974 l 2.20487,-0.91451 c 3.35937,-1.39336 4.71982,-1.65685 8.55486,-1.65685 4.10847,0 5.67294,0.35262 8.1671,1.84077 3.54074,2.11262 4.00373,4.06346 4.00373,16.86989 v 9.50764 h 1.41111 c 1.01914,0 1.41111,0.14699 1.41111,0.52917 0,0.44884 -0.87749,0.52916 -5.78078,0.52916 h -5.78077 l -0.23594,-1.57335 -0.23594,-1.57335 -1.47981,1.5365 c -1.68824,1.75291 -3.24057,2.31085 -6.43763,2.31379 -1.57206,0.001 -2.60126,-0.23008 -3.9003,-0.87742 z m 9.5467,-2.15264 c 0.9826,-0.98261 1.51551,-2.36411 1.91832,-4.97304 0.48111,-3.11606 0.518,-9.28104 0.0555,-9.28104 -0.52757,0 -2.18647,0.78021 -3.61748,1.70137 -1.9029,1.22491 -2.57273,3.21998 -2.57273,7.66276 0,4.29771 0.5194,5.45254 2.45238,5.45254 0.66076,0 1.45456,-0.25317 1.76398,-0.56259 z m 56.0397,2.39121 c -1.76776,-0.71831 -3.39962,-2.20709 -4.14811,-3.78443 -1.29124,-2.72108 -0.2591,-7.90635 1.79232,-9.00423 0.46048,-0.24644 0.83723,-0.56323 0.83723,-0.70397 0,-0.14073 2.10344,-0.92834 4.67431,-1.75022 2.57087,-0.8219 5.42837,-1.87323 6.35,-2.33629 l 1.67569,-0.84193 v -3.32249 c 0,-4.56787 -0.58231,-5.90101 -2.86332,-6.55519 -2.53635,-0.72742 -4.83381,1.98122 -6.81734,8.03748 l -0.60659,1.85208 h -1.55916 -1.55914 v -4.04881 c 0,-4.70955 -0.10431,-4.56143 4.24966,-6.03449 2.02214,-0.68414 3.24133,-0.85281 6.16416,-0.85281 4.64774,0 6.76076,0.49706 8.86078,2.08438 3.15931,2.38799 3.11188,2.16887 3.23332,14.93716 l 0.10652,11.20069 h 1.56917 c 1.15963,0 1.56917,0.13811 1.56917,0.52917 0,0.44899 -0.88195,0.52916 -5.82084,0.52916 -5.50292,0 -5.82083,-0.037 -5.82083,-0.6767 0,-0.97389 -0.36835,-1.79274 -0.80644,-1.79274 -0.20801,0 -0.87178,0.53888 -1.47507,1.19751 -0.61917,0.67599 -1.70556,1.36651 -2.49449,1.58554 -2.02765,0.56293 -5.40394,0.44477 -7.111,-0.24887 z m 9.42755,-2.89482 c 0.49057,-0.55708 1.08588,-1.73799 1.32292,-2.62424 0.50911,-1.90352 0.5896,-11.12623 0.0971,-11.12623 -0.18364,0 -1.27483,0.55147 -2.42487,1.2255 -2.52477,1.47972 -3.15525,2.62234 -3.4643,6.27838 -0.29978,3.54637 0.0727,5.7806 1.1419,6.84982 1.0441,1.0441 2.03477,0.86449 3.32725,-0.60323 z m -116.07389,2.30092 c 0,-0.39198 0.41158,-0.52917 1.5875,-0.52917 h 1.5875 v -18.52084 -18.52083 h -1.5875 c -1.17592,0 -1.5875,-0.1372 -1.5875,-0.52917 0,-0.45077 0.94074,-0.52917 6.35,-0.52917 h 6.35 v 19.05 19.05001 h 1.5875 c 1.17593,0 1.5875,0.13719 1.5875,0.52917 0,0.45469 -1.11713,0.52916 -7.9375,0.52916 -6.82037,0 -7.9375,-0.0745 -7.9375,-0.52916 z m 18.34445,0 c 0,-0.39198 0.41157,-0.52917 1.5875,-0.52917 h 1.5875 v -18.52084 -18.52083 h -1.5875 c -1.17593,0 -1.5875,-0.1372 -1.5875,-0.52917 0,-0.45077 0.94074,-0.52917 6.35,-0.52917 h 6.35 v 19.05 19.05001 h 1.5875 c 1.17592,0 1.5875,0.13719 1.5875,0.52917 0,0.45469 -1.11714,0.52916 -7.9375,0.52916 -6.82037,0 -7.9375,-0.0745 -7.9375,-0.52916 z m 48.68333,0 c 0,-0.39198 0.41158,-0.52917 1.5875,-0.52917 h 1.5875 v -13.22917 -13.22917 h -1.41111 c -1.01914,0 -1.41111,-0.14699 -1.41111,-0.52917 0,-0.44832 0.86234,-0.52916 5.64444,-0.52916 h 5.64445 v 1.80539 1.80539 l 1.4783,-1.4783 c 2.19091,-2.19091 3.19908,-2.59772 6.86079,-2.76845 3.77992,-0.17623 5.27738,0.21862 6.8359,1.80249 2.20957,2.24553 2.24598,2.47391 2.38722,14.97307 l 0.12856,11.37708 h 1.56156 c 1.15286,0 1.56156,0.13849 1.56156,0.52917 0,0.45316 -1.03874,0.52916 -7.23195,0.52916 -6.19321,0 -7.23194,-0.076 -7.23194,-0.52916 0,-0.35553 0.35559,-0.52917 1.08366,-0.52917 h 1.08367 l -0.11353,-11.74614 c -0.12817,-13.26196 -0.15417,-13.39789 -2.6518,-13.86644 -2.03431,-0.38164 -3.61649,0.64723 -4.3956,2.85841 -0.53855,1.52846 -0.62346,3.16466 -0.63617,12.25903 l -0.0147,10.49514 h 1.05834 c 0.70555,0 1.05833,0.17639 1.05833,0.52917 0,0.45316 -1.03873,0.52916 -7.23194,0.52916 -6.19322,0 -7.23195,-0.076 -7.23195,-0.52916 z M -5.3116365,124.53326 c -0.69858,-0.69858 -0.512933,-1.21374 0.8231538,-2.2842 0.69122,-0.5538 1.451864,-1.16566 1.69032,-1.35968 0.238456,-0.19403 1.3001,-0.81202 2.35920898,-1.37331 1.05911,-0.5613 3.67190262,-1.95209 5.80620822,-3.09065 5.5423715,-2.95663 12.7328865,-6.33206 19.0500005,-8.94261 7.156722,-2.95752 9.264093,-3.7953 11.112501,-4.41775 1.067152,-0.35937 3.527778,-1.23314 5.468055,-1.94171 1.940278,-0.70858 3.790577,-1.341278 4.111777,-1.405998 0.321201,-0.06472 1.829326,-0.522906 3.351389,-1.018194 3.881117,-1.262935 13.170049,-3.78437 15.820169,-4.294307 0.388055,-0.07467 2.213681,-0.466116 4.056945,-0.869881 1.843263,-0.403765 3.668889,-0.802844 4.056944,-0.886843 0.388056,-0.084 2.372431,-0.39976 4.409723,-0.701692 2.037291,-0.301931 4.021666,-0.618299 4.409722,-0.70304 1.005798,-0.219637 10.224428,-1.248614 12.462066,-1.391007 2.204819,-0.140304 2.475047,-0.316769 1.763829,-1.151822 -2.328245,-2.733632 -2.882378,-7.948856 -1.216201,-11.446328 1.224865,-2.571126 4.030394,-5.143615 6.740096,-6.180229 3.08867,-1.181597 7.08913,-0.972815 10.14018,0.52921 3.15435,1.552886 4.36917,2.799806 5.82429,5.978203 1.50677,3.291221 1.14722,7.235777 -0.94326,10.348433 -0.57105,0.850273 -1.00626,1.577963 -0.96714,1.617089 0.0391,0.03913 1.18052,0.167332 2.53642,0.284901 3.42373,0.296869 8.38127,0.84538 11.10833,1.229045 4.09732,0.576447 9.31176,1.412898 10.93611,1.754269 1.47854,0.310728 8.48894,1.865195 11.28889,2.503169 6.46013,1.471951 27.61663,8.433332 30.94362,10.181762 0.70033,0.36804 7.23091,3.02823 7.50916,3.05881 0.097,0.0107 1.28764,0.54664 2.64583,1.19107 1.3582,0.64442 3.81882,1.79914 5.46806,2.56604 11.27924,5.24488 19.40278,10.07599 19.40278,11.53892 0,0.22053 -0.39058,0.57892 -0.86796,0.79643 -0.8715,0.39708 -1.32479,0.26183 -7.42232,-2.21469 -0.58208,-0.23641 -1.13771,-0.45645 -1.23472,-0.48896 -0.097,-0.0325 -0.57327,-0.22513 -1.05834,-0.42803 -2.20888,-0.92394 -13.01639,-4.33271 -15.40584,-4.85912 -0.35505,-0.0782 -1.20117,-0.32444 -1.88027,-0.54715 -0.6791,-0.22271 -1.79035,-0.52803 -2.46944,-0.67849 -0.6791,-0.15046 -2.86488,-0.70247 -4.85728,-1.22668 -1.99241,-0.52422 -3.97678,-0.99941 -4.40973,-1.05598 -0.43294,-0.0566 -1.18403,-0.20253 -1.6691,-0.32434 -5.77193,-1.44946 -22.82918,-4.21121 -30.86806,-4.99787 -0.97014,-0.0949 -2.47827,-0.25332 -3.35139,-0.35197 -0.87313,-0.0987 -2.61938,-0.25605 -3.88056,-0.34978 -1.26118,-0.0937 -4.11868,-0.31289 -6.35,-0.48703 -6.42275,-0.50124 -9.45106,-0.56856 -25.57638,-0.56856 -19.676748,0 -28.829106,0.45976 -42.862504,2.15317 -6.812891,0.82211 -15.816323,2.18588 -20.637501,3.12601 -0.661413,0.12898 -3.23843,0.63514 -5.644445,1.10865 -2.430911,0.47841 -6.960948,1.56388 -10.759723,2.5782 -2.231319,0.59578 -4.417967,1.16752 -4.859214,1.27052 -0.441247,0.10301 -2.066452,0.58664 -3.611563,1.07474 -1.545113,0.4881 -2.890209,0.88228 -2.989107,0.87596 -0.159042,-0.0102 -1.279549,0.38357 -3.533172,1.24154 -0.388055,0.14773 -0.7849301,0.28883 -0.881944,0.31355 -0.7206192,0.18361 -4.2888961,1.46384 -5.2916669,1.89854 -0.6790973,0.29439 -1.3934723,0.56938 -1.5875001,0.6111 -0.1940278,0.0417 -1.5434027,0.5498 -2.99861172,1.12909 -3.44565798,1.37164 -4.66589298,1.62443 -5.21083478,1.07948 z"/></g></svg>